<?xml version="1.0" encoding="UTF-8" standalone="no" ?>
<!DOCTYPE svg PUBLIC "-//W3C//DTD SVG 1.1//EN" "http://www.w3.org/Graphics/SVG/1.1/DTD/svg11.dtd">
<svg xmlns="http://www.w3.org/2000/svg" xmlns:xlink="http://www.w3.org/1999/xlink" version="1.1" width="1080" height="1080" viewBox="0 0 1080 1080" xml:space="preserve">
<desc>Created with Fabric.js 5.2.4</desc>
<defs>
</defs>
<rect x="0" y="0" width="100%" height="100%" fill="transparent"></rect>
<g transform="matrix(1 0 0 1 540 540)" id="5eb63247-2f14-4562-8a86-9287d4a66814"  >
</g>
<g transform="matrix(1 0 0 1 540 540)" id="758495ca-1e29-43ca-83f5-63c9b135c179"  >
<rect style="stroke: none; stroke-width: 1; stroke-dasharray: none; stroke-linecap: butt; stroke-dashoffset: 0; stroke-linejoin: miter; stroke-miterlimit: 4; fill: rgb(255,255,255); fill-rule: nonzero; opacity: 1; visibility: hidden;" vector-effect="non-scaling-stroke"  x="-540" y="-540" rx="0" ry="0" width="1080" height="1080" />
</g>
<g transform="matrix(53.66 0 0 53.66 540.52 539.58)" id="ed75e920-ab0f-405e-a9ac-aad5a39a2ab5"  >
<path style="stroke: rgb(0,0,0); stroke-width: 0; stroke-dasharray: none; stroke-linecap: butt; stroke-dashoffset: 0; stroke-linejoin: miter; stroke-miterlimit: 4; fill: rgb(255,255,255); fill-rule: nonzero; opacity: 1;" vector-effect="non-scaling-stroke"  transform=" translate(-12, -11.98)" d="M 19.83 8.00001 C 19.83 8.17001 19.83 8.35001 19.83 8.52001 C 19.8393 10.0302 19.5487 11.5272 18.9751 12.9242 C 18.4014 14.3212 17.5562 15.5904 16.4883 16.6583 C 15.4204 17.7262 14.1512 18.5714 12.7542 19.1451 C 11.3572 19.7187 9.86017 20.0093 8.34999 20 C 6.15213 20.0064 3.9992 19.3779 2.14999 18.19 C 2.47999 18.19 2.78999 18.19 3.14999 18.19 C 4.96345 18.19 6.72433 17.5808 8.14999 16.46 C 7.30493 16.4524 6.48397 16.1774 5.80489 15.6744 C 5.12581 15.1714 4.62349 14.4662 4.36999 13.66 C 4.62464 13.7006 4.88213 13.7207 5.13999 13.72 C 5.49714 13.7174 5.85281 13.6738 6.19999 13.59 C 5.2965 13.4056 4.48448 12.9147 3.90135 12.2003 C 3.31822 11.486 2.99981 10.5921 2.99999 9.67001 C 3.55908 9.97841 4.18206 10.153 4.81999 10.18 C 4.25711 9.80767 3.79593 9.30089 3.47815 8.7055 C 3.16038 8.11011 2.99604 7.44489 2.99999 6.77001 C 3.00124 6.06749 3.18749 5.37769 3.53999 4.77001 C 4.55172 6.01766 5.81423 7.03889 7.24575 7.76757 C 8.67727 8.49625 10.2459 8.91613 11.85 9.00001 C 11.7865 8.69737 11.753 8.38922 11.75 8.08001 C 11.7239 7.25689 11.9526 6.44578 12.4047 5.75746 C 12.8569 5.06913 13.5104 4.53714 14.2762 4.23411 C 15.0419 3.93109 15.8826 3.87181 16.6833 4.06437 C 17.484 4.25693 18.2057 4.69195 18.75 5.31001 C 19.655 5.12822 20.5214 4.78981 21.31 4.31001 C 21.0088 5.24317 20.3754 6.0332 19.53 6.53001 C 20.3337 6.44316 21.1194 6.23408 21.86 5.91001 C 21.3116 6.71097 20.6361 7.41694 19.86 8.00001 L 19.83 8.00001 Z" stroke-linecap="round" />
</g>
</svg>